# MagicaVoxel @ Ephtracy

# group
o 

# material
mtllib Coin.mtl
usemtl palette

# normals
vn -1 0 0
vn 1 0 0
vn 0 0 1
vn 0 0 -1
vn 0 -1 0
vn 0 1 0

# texcoords
vt 0.00585938 0.5
vt 0.00976562 0.5
vt 0.0175781 0.5
vt 0.0214844 0.5

# verts
v -2 0.9 2
v -2 0.9 1.9
v -2 0.9 1.4
v -2 2.9 1.5
v -2 2.9 1.4
v -2 3 2
v -2 3 1.9
v -2 3 1.5
v -1.7 0.6 2
v -1.7 0.6 1.9
v -1.7 0.6 1.4
v -1.7 0.9 2
v -1.7 0.9 1.9
v -1.7 0.9 1.4
v -1.7 2.9 1.5
v -1.7 2.9 1.4
v -1.7 3 2
v -1.7 3 1.9
v -1.7 3 1.5
v -1.7 3.3 1.6
v -1.7 3.3 1.4
v -1.7 3.4 2
v -1.7 3.4 1.9
v -1.7 3.4 1.6
v -1.4 3.4 2
v -1.4 3.4 1.9
v -1.4 3.7 2
v -1.4 3.7 1.9
v -1.3 0.3 2
v -1.3 0.3 1.9
v -1.3 0.3 1.4
v -1.3 0.6 2
v -1.3 0.6 1.9
v -1.3 0.6 1.4
v -1.3 3.3 1.6
v -1.3 3.3 1.4
v -1.3 3.4 1.9
v -1.3 3.4 1.6
v -1.3 3.7 1.9
v -1.3 3.7 1.4
v -1 0 2
v -1 0 1.9
v -1 0 1.4
v -1 0.3 2
v -1 0.3 1.9
v -1 0.3 1.4
v -0.9 3.7 2
v -0.9 3.7 1.9
v -0.9 3.7 1.5
v -0.9 4 2
v -0.9 4 1.9
v -0.9 4 1.5
v -0.9 0 1.5
v -0.9 0 1.4
v -0.9 3.7 1.5
v -0.9 3.7 1.4
v 0.8 3.6 2
v 0.8 3.6 1.9
v 0.8 3.6 1.5
v 0.8 4 2
v 0.8 4 1.9
v 0.8 4 1.5
v 1.3 3.2 2
v 1.3 3.2 1.9
v 1.3 3.2 1.8
v 1.3 3.6 2
v 1.3 3.6 1.9
v 1.3 3.6 1.8
v 1.4 0 2
v 1.4 0 1.9
v 1.4 0 1.5
v 1.4 0.4 2
v 1.4 0.4 1.9
v 1.4 0.4 1.5
v 1.4 3.2 1.8
v 1.4 3.2 1.5
v 1.4 3.6 1.8
v 1.4 3.6 1.5
v 1.6 0.4 1.6
v 1.6 0.4 1.5
v 1.6 3.2 1.6
v 1.6 3.2 1.5
v 1.7 0.4 2
v 1.7 0.4 1.9
v 1.7 0.4 1.6
v 1.7 0.7 2
v 1.7 0.7 1.9
v 1.7 0.7 1.6
v 1.7 2.8 2
v 1.7 2.8 1.9
v 1.7 3.2 2
v 1.7 3.2 1.9
v 1.8 2.8 1.9
v 1.8 2.8 1.6
v 1.8 3.2 1.9
v 1.8 3.2 1.6
v 2 0.7 2
v 2 0.7 1.9
v 2 0.7 1.6
v 2 2.8 2
v 2 2.8 1.9
v 2 2.8 1.6
v -2 0.9 2
v -2 3 2
v -1.7 0.6 2
v -1.7 0.9 2
v -1.7 3 2
v -1.7 3.4 2
v -1.4 0.6 2
v -1.4 0.9 2
v -1.4 3 2
v -1.4 3.4 2
v -1.4 3.7 2
v -1.3 0.3 2
v -1.3 0.6 2
v -1.1 0.3 2
v -1.1 0.6 2
v -1.1 1 2
v -1.1 2.6 2
v -1 0 2
v -1 0.3 2
v -1 3.4 2
v -1 3.6 2
v -0.9 3.7 2
v -0.9 4 2
v -0.8 0.7 2
v -0.8 1 2
v -0.8 2.6 2
v -0.8 3 2
v -0.0999999 1.5 2
v -0.0999999 1.9 2
v 0.4 2.6 2
v 0.4 3 2
v 0.6 0.7 2
v 0.6 1 2
v 0.6 1.5 2
v 0.8 3.2 2
v 0.8 3.6 2
v 0.8 4 2
v 0.9 1 2
v 0.9 1.9 2
v 1.1 0.3 2
v 1.1 0.4 2
v 1.3 2.8 2
v 1.3 3.2 2
v 1.3 3.6 2
v 1.4 0 2
v 1.4 0.4 2
v 1.4 0.7 2
v 1.7 0.4 2
v 1.7 0.7 2
v 1.7 2.8 2
v 1.7 3.2 2
v 2 0.7 2
v 2 2.8 2
v 1.7 2.8 1.9
v 1.7 3.2 1.9
v 1.8 2.8 1.9
v 1.8 3.2 1.9
v 1.3 3.2 1.8
v 1.3 3.6 1.8
v 1.4 3.2 1.8
v 1.4 3.6 1.8
v -1.4 3.4 1.9
v -1.4 3.7 1.9
v -1.3 3.4 1.9
v -1.3 3.7 1.9
v -1.7 3.3 1.6
v -1.7 3.4 1.6
v -1.3 3.3 1.6
v -1.3 3.4 1.6
v 1.6 0.4 1.6
v 1.6 3.2 1.6
v 1.7 0.4 1.6
v 1.7 0.7 1.6
v 1.8 2.8 1.6
v 1.8 3.2 1.6
v 2 0.7 1.6
v 2 2.8 1.6
v -2 2.9 1.5
v -2 3 1.5
v -1.7 2.9 1.5
v -1.7 3 1.5
v -0.9 0 1.5
v -0.9 3.7 1.5
v -0.9 4 1.5
v 0.8 3.6 1.5
v 0.8 4 1.5
v 1.4 0 1.5
v 1.4 0.4 1.5
v 1.4 3.2 1.5
v 1.4 3.6 1.5
v 1.6 0.4 1.5
v 1.6 3.2 1.5
v -2 0.9 1.4
v -2 2.9 1.4
v -1.7 0.6 1.4
v -1.7 0.9 1.4
v -1.7 2.9 1.4
v -1.7 3.3 1.4
v -1.3 0.3 1.4
v -1.3 0.6 1.4
v -1.3 3.3 1.4
v -1.3 3.7 1.4
v -1 0 1.4
v -1 0.3 1.4
v -0.9 0 1.4
v -0.9 3.7 1.4
v -1 0 2
v 1.4 0 2
v -1 0 1.9
v 1.4 0 1.9
v -0.9 0 1.5
v 1.4 0 1.5
v -1 0 1.4
v -0.9 0 1.4
v -1.3 0.3 2
v -1.1 0.3 2
v -1 0.3 2
v -1.3 0.3 1.9
v -1.1 0.3 1.9
v -1 0.3 1.9
v -1.3 0.3 1.4
v -1 0.3 1.4
v 1.4 0.4 2
v 1.7 0.4 2
v 1.4 0.4 1.9
v 1.7 0.4 1.9
v 1.6 0.4 1.6
v 1.7 0.4 1.6
v 1.4 0.4 1.5
v 1.6 0.4 1.5
v -1.7 0.6 2
v -1.4 0.6 2
v -1.3 0.6 2
v -1.7 0.6 1.9
v -1.4 0.6 1.9
v -1.3 0.6 1.9
v -1.7 0.6 1.4
v -1.3 0.6 1.4
v 1.7 0.7 2
v 2 0.7 2
v 1.7 0.7 1.9
v 2 0.7 1.9
v 1.7 0.7 1.6
v 2 0.7 1.6
v -2 0.9 2
v -1.7 0.9 2
v -2 0.9 1.9
v -1.7 0.9 1.9
v -2 0.9 1.4
v -1.7 0.9 1.4
v 1.7 2.8 2
v 2 2.8 2
v 1.7 2.8 1.9
v 1.8 2.8 1.9
v 2 2.8 1.9
v 1.8 2.8 1.6
v 2 2.8 1.6
v -2 2.9 1.5
v -1.7 2.9 1.5
v -2 2.9 1.4
v -1.7 2.9 1.4
v -2 3 2
v -1.7 3 2
v -2 3 1.9
v -1.7 3 1.9
v -2 3 1.5
v -1.7 3 1.5
v 1.3 3.2 2
v 1.7 3.2 2
v 1.3 3.2 1.9
v 1.7 3.2 1.9
v 1.8 3.2 1.9
v 1.3 3.2 1.8
v 1.4 3.2 1.8
v 1.6 3.2 1.6
v 1.8 3.2 1.6
v 1.4 3.2 1.5
v 1.6 3.2 1.5
v -1.7 3.3 1.6
v -1.3 3.3 1.6
v -1.7 3.3 1.4
v -1.3 3.3 1.4
v -1.7 3.4 2
v -1.4 3.4 2
v -1.7 3.4 1.9
v -1.4 3.4 1.9
v -1.3 3.4 1.9
v -1.7 3.4 1.6
v -1.3 3.4 1.6
v 0.8 3.6 2
v 1.3 3.6 2
v 0.8 3.6 1.9
v 1.3 3.6 1.9
v 1.3 3.6 1.8
v 1.4 3.6 1.8
v 0.8 3.6 1.5
v 1.4 3.6 1.5
v -1.4 3.7 2
v -0.9 3.7 2
v -1.4 3.7 1.9
v -1.3 3.7 1.9
v -0.9 3.7 1.9
v -0.9 3.7 1.5
v -1.3 3.7 1.4
v -0.9 3.7 1.4
v -0.9 4 2
v 0.8 4 2
v -0.9 4 1.9
v 0.8 4 1.9
v -0.9 4 1.5
v 0.8 4 1.5

# faces
f 4/4/1 3/4/1 2/4/1
f 5/4/1 3/4/1 4/4/1
f 6/2/1 2/2/1 1/2/1
f 7/4/1 4/4/1 2/4/1
f 7/2/1 2/2/1 6/2/1
f 8/4/1 4/4/1 7/4/1
f 12/2/1 10/2/1 9/2/1
f 13/4/1 11/4/1 10/4/1
f 13/2/1 10/2/1 12/2/1
f 14/4/1 11/4/1 13/4/1
f 19/4/1 16/4/1 15/4/1
f 20/4/1 19/4/1 18/4/1
f 21/4/1 16/4/1 19/4/1
f 21/4/1 19/4/1 20/4/1
f 22/2/1 18/2/1 17/2/1
f 23/4/1 20/4/1 18/4/1
f 23/2/1 18/2/1 22/2/1
f 24/4/1 20/4/1 23/4/1
f 27/2/1 26/2/1 25/2/1
f 28/2/1 26/2/1 27/2/1
f 32/2/1 30/2/1 29/2/1
f 33/4/1 31/4/1 30/4/1
f 33/2/1 30/2/1 32/2/1
f 34/4/1 31/4/1 33/4/1
f 38/4/1 36/4/1 35/4/1
f 39/4/1 38/4/1 37/4/1
f 40/4/1 36/4/1 38/4/1
f 40/4/1 38/4/1 39/4/1
f 44/2/1 42/2/1 41/2/1
f 45/4/1 43/4/1 42/4/1
f 45/2/1 42/2/1 44/2/1
f 46/4/1 43/4/1 45/4/1
f 50/2/1 48/2/1 47/2/1
f 51/4/1 49/4/1 48/4/1
f 51/2/1 48/2/1 50/2/1
f 52/4/1 49/4/1 51/4/1
f 53/4/2 54/4/2 55/4/2
f 55/4/2 54/4/2 56/4/2
f 57/2/2 58/2/2 60/2/2
f 58/4/2 59/4/2 61/4/2
f 60/2/2 58/2/2 61/2/2
f 61/4/2 59/4/2 62/4/2
f 63/2/2 64/2/2 66/2/2
f 64/4/2 65/4/2 67/4/2
f 66/2/2 64/2/2 67/2/2
f 67/4/2 65/4/2 68/4/2
f 69/2/2 70/2/2 72/2/2
f 70/4/2 71/4/2 73/4/2
f 72/2/2 70/2/2 73/2/2
f 73/4/2 71/4/2 74/4/2
f 75/4/2 76/4/2 77/4/2
f 77/4/2 76/4/2 78/4/2
f 79/4/2 80/4/2 81/4/2
f 81/4/2 80/4/2 82/4/2
f 83/2/2 84/2/2 86/2/2
f 84/4/2 85/4/2 87/4/2
f 86/2/2 84/2/2 87/2/2
f 87/4/2 85/4/2 88/4/2
f 89/2/2 90/2/2 91/2/2
f 91/2/2 90/2/2 92/2/2
f 93/4/2 94/4/2 95/4/2
f 95/4/2 94/4/2 96/4/2
f 97/2/2 98/2/2 100/2/2
f 98/4/2 99/4/2 101/4/2
f 100/2/2 98/2/2 101/2/2
f 101/4/2 99/4/2 102/4/2
f 106/2/3 104/2/3 103/2/3
f 107/2/3 104/2/3 106/2/3
f 109/2/3 106/2/3 105/2/3
f 110/3/3 107/3/3 106/3/3
f 110/2/3 106/2/3 109/2/3
f 111/2/3 108/2/3 107/2/3
f 111/3/3 107/3/3 110/3/3
f 112/2/3 108/2/3 111/2/3
f 115/3/3 110/3/3 109/3/3
f 115/3/3 111/3/3 110/3/3
f 115/3/3 112/3/3 111/3/3
f 116/2/3 115/2/3 114/2/3
f 117/3/3 112/3/3 115/3/3
f 117/2/3 115/2/3 116/2/3
f 118/3/3 112/3/3 117/3/3
f 119/3/3 112/3/3 118/3/3
f 121/3/3 117/3/3 116/3/3
f 121/3/3 118/3/3 117/3/3
f 122/2/3 113/2/3 112/2/3
f 122/3/3 112/3/3 119/3/3
f 123/2/3 113/2/3 122/2/3
f 124/2/3 113/2/3 123/2/3
f 126/3/3 118/3/3 121/3/3
f 127/1/3 119/1/3 118/1/3
f 127/3/3 118/3/3 126/3/3
f 128/3/3 122/3/3 119/3/3
f 128/1/3 119/1/3 127/1/3
f 128/3/3 123/3/3 122/3/3
f 129/3/3 123/3/3 128/3/3
f 130/3/3 128/3/3 127/3/3
f 131/3/3 128/3/3 130/3/3
f 132/1/3 129/1/3 128/1/3
f 132/3/3 128/3/3 131/3/3
f 133/3/3 123/3/3 129/3/3
f 133/1/3 129/1/3 132/1/3
f 134/3/3 126/3/3 121/3/3
f 134/1/3 127/1/3 126/1/3
f 135/3/3 130/3/3 127/3/3
f 135/1/3 127/1/3 134/1/3
f 136/1/3 131/1/3 130/1/3
f 136/3/3 130/3/3 135/3/3
f 137/3/3 123/3/3 133/3/3
f 137/3/3 133/3/3 132/3/3
f 138/2/3 125/2/3 124/2/3
f 138/3/3 123/3/3 137/3/3
f 138/2/3 124/2/3 123/2/3
f 139/2/3 125/2/3 138/2/3
f 140/1/3 136/1/3 135/1/3
f 140/3/3 135/3/3 134/3/3
f 141/3/3 137/3/3 132/3/3
f 141/1/3 136/1/3 140/1/3
f 141/1/3 131/1/3 136/1/3
f 141/3/3 132/3/3 131/3/3
f 142/2/3 121/2/3 120/2/3
f 142/3/3 140/3/3 134/3/3
f 142/3/3 141/3/3 140/3/3
f 142/3/3 134/3/3 121/3/3
f 143/3/3 141/3/3 142/3/3
f 144/3/3 137/3/3 141/3/3
f 144/3/3 141/3/3 143/3/3
f 145/2/3 138/2/3 137/2/3
f 145/3/3 137/3/3 144/3/3
f 146/2/3 138/2/3 145/2/3
f 147/2/3 143/2/3 142/2/3
f 147/2/3 142/2/3 120/2/3
f 148/3/3 144/3/3 143/3/3
f 148/2/3 143/2/3 147/2/3
f 149/3/3 144/3/3 148/3/3
f 150/2/3 149/2/3 148/2/3
f 151/3/3 144/3/3 149/3/3
f 151/2/3 149/2/3 150/2/3
f 152/2/3 145/2/3 144/2/3
f 152/3/3 144/3/3 151/3/3
f 153/2/3 145/2/3 152/2/3
f 154/2/3 152/2/3 151/2/3
f 155/2/3 152/2/3 154/2/3
f 158/4/3 157/4/3 156/4/3
f 159/4/3 157/4/3 158/4/3
f 162/4/3 161/4/3 160/4/3
f 163/4/3 161/4/3 162/4/3
f 164/2/4 165/2/4 166/2/4
f 166/2/4 165/2/4 167/2/4
f 168/4/4 169/4/4 170/4/4
f 170/4/4 169/4/4 171/4/4
f 172/4/4 173/4/4 174/4/4
f 174/4/4 173/4/4 175/4/4
f 175/4/4 173/4/4 176/4/4
f 176/4/4 173/4/4 177/4/4
f 175/4/4 176/4/4 178/4/4
f 178/4/4 176/4/4 179/4/4
f 180/4/4 181/4/4 182/4/4
f 182/4/4 181/4/4 183/4/4
f 184/4/4 185/4/4 187/4/4
f 185/4/4 186/4/4 187/4/4
f 187/4/4 186/4/4 188/4/4
f 184/4/4 187/4/4 189/4/4
f 189/4/4 187/4/4 190/4/4
f 190/4/4 187/4/4 191/4/4
f 191/4/4 187/4/4 192/4/4
f 190/4/4 191/4/4 193/4/4
f 193/4/4 191/4/4 194/4/4
f 195/4/4 196/4/4 198/4/4
f 198/4/4 196/4/4 199/4/4
f 197/4/4 198/4/4 202/4/4
f 199/4/4 200/4/4 202/4/4
f 198/4/4 199/4/4 202/4/4
f 202/4/4 200/4/4 203/4/4
f 201/4/4 202/4/4 206/4/4
f 203/4/4 204/4/4 206/4/4
f 202/4/4 203/4/4 206/4/4
f 205/4/4 206/4/4 207/4/4
f 206/4/4 204/4/4 208/4/4
f 207/4/4 206/4/4 208/4/4
f 211/2/5 210/2/5 209/2/5
f 212/2/5 210/2/5 211/2/5
f 213/4/5 212/4/5 211/4/5
f 214/4/5 212/4/5 213/4/5
f 215/4/5 213/4/5 211/4/5
f 216/4/5 213/4/5 215/4/5
f 220/2/5 218/2/5 217/2/5
f 221/3/5 219/3/5 218/3/5
f 221/2/5 218/2/5 220/2/5
f 222/3/5 219/3/5 221/3/5
f 223/4/5 221/4/5 220/4/5
f 223/4/5 222/4/5 221/4/5
f 224/4/5 222/4/5 223/4/5
f 227/2/5 226/2/5 225/2/5
f 228/2/5 226/2/5 227/2/5
f 229/4/5 228/4/5 227/4/5
f 230/4/5 228/4/5 229/4/5
f 231/4/5 229/4/5 227/4/5
f 232/4/5 229/4/5 231/4/5
f 236/2/5 234/2/5 233/2/5
f 237/3/5 235/3/5 234/3/5
f 237/2/5 234/2/5 236/2/5
f 238/3/5 235/3/5 237/3/5
f 239/4/5 237/4/5 236/4/5
f 239/4/5 238/4/5 237/4/5
f 240/4/5 238/4/5 239/4/5
f 243/2/5 242/2/5 241/2/5
f 244/2/5 242/2/5 243/2/5
f 245/4/5 244/4/5 243/4/5
f 246/4/5 244/4/5 245/4/5
f 249/2/5 248/2/5 247/2/5
f 250/2/5 248/2/5 249/2/5
f 251/4/5 250/4/5 249/4/5
f 252/4/5 250/4/5 251/4/5
f 253/2/6 254/2/6 255/2/6
f 255/2/6 254/2/6 256/2/6
f 256/2/6 254/2/6 257/2/6
f 256/4/6 257/4/6 258/4/6
f 258/4/6 257/4/6 259/4/6
f 260/4/6 261/4/6 262/4/6
f 262/4/6 261/4/6 263/4/6
f 264/2/6 265/2/6 266/2/6
f 266/2/6 265/2/6 267/2/6
f 266/4/6 267/4/6 268/4/6
f 268/4/6 267/4/6 269/4/6
f 270/2/6 271/2/6 272/2/6
f 272/2/6 271/2/6 273/2/6
f 272/4/6 273/4/6 275/4/6
f 273/4/6 274/4/6 275/4/6
f 275/4/6 274/4/6 276/4/6
f 276/4/6 274/4/6 277/4/6
f 277/4/6 274/4/6 278/4/6
f 276/4/6 277/4/6 279/4/6
f 279/4/6 277/4/6 280/4/6
f 281/4/6 282/4/6 283/4/6
f 283/4/6 282/4/6 284/4/6
f 285/2/6 286/2/6 287/2/6
f 287/2/6 286/2/6 288/2/6
f 287/4/6 288/4/6 290/4/6
f 288/4/6 289/4/6 290/4/6
f 290/4/6 289/4/6 291/4/6
f 292/2/6 293/2/6 294/2/6
f 294/2/6 293/2/6 295/2/6
f 294/4/6 295/4/6 296/4/6
f 294/4/6 296/4/6 298/4/6
f 296/4/6 297/4/6 298/4/6
f 298/4/6 297/4/6 299/4/6
f 300/2/6 301/2/6 302/2/6
f 302/2/6 301/2/6 303/2/6
f 303/2/6 301/2/6 304/2/6
f 303/4/6 304/4/6 305/4/6
f 303/4/6 305/4/6 306/4/6
f 306/4/6 305/4/6 307/4/6
f 308/2/6 309/2/6 310/2/6
f 310/2/6 309/2/6 311/2/6
f 310/4/6 311/4/6 312/4/6
f 312/4/6 311/4/6 313/4/6
